<svg xmlns="http://www.w3.org/2000/svg" viewBox="0 0 128 128">
  <rect x="10" y="10" width="108" height="108" rx="18" fill="#fff" stroke="#111" stroke-width="4"/>
  <path d="M10 34h108v-6c0-9.941-8.059-18-18-18H28c-9.941 0-18 8.059-18 18v6Z" fill="#111"/>
  <circle cx="26" cy="22" r="3.5" fill="#fff"/>
  <circle cx="38" cy="22" r="3.5" fill="#fff"/>
  <circle cx="50" cy="22" r="3.5" fill="#fff"/>
  <path d="M98 18l12 12M110 18 98 30" stroke="#fff" stroke-linecap="round" stroke-width="4"/>
  <path d="M32 58c3 6 7 8 13 8" fill="none" stroke="#111" stroke-linecap="round" stroke-width="4"/>
  <path d="M30 72c4-3 9-4 14-3" fill="none" stroke="#111" stroke-linecap="round" stroke-width="4"/>
  <path d="M96 58c-3 6-7 8-13 8" fill="none" stroke="#111" stroke-linecap="round" stroke-width="4"/>
  <path d="M98 72c-4-3-9-4-14-3" fill="none" stroke="#111" stroke-linecap="round" stroke-width="4"/>
  <path d="M64 32c-19 0-33 14-33 31 0 9 4 17 11 23 5 4 12 6 22 6s17-2 22-6c7-6 11-14 11-23 0-17-14-31-33-31Z" fill="#111"/>
  <path d="M56 48c-5 1-9 7-10 13 5-3 11-3 16 0-1-7-3-12-6-13Zm16 0c-3 1-5 6-6 13 5-3 11-3 16 0-1-6-5-12-10-13Z" fill="#fff"/>
  <path d="M59 74c3 6 7 10 5 18l10-2c-2-8 2-12 5-18-6 3-14 3-20 0Z" fill="#fff"/>
  <path d="M50 69c8 5 20 5 28 0" fill="none" stroke="#fff" stroke-linecap="round" stroke-width="4"/>
</svg>
